<svg xmlns="http://www.w3.org/2000/svg" viewBox="0 0 64 64" role="img" aria-label="Формат iBooks (Apple Books)">
  <defs>
    <linearGradient id="g" x1="0" y1="0" x2="0" y2="1">
      <stop offset="0" stop-color="#ff7a45"/>
      <stop offset="1" stop-color="#e2511f"/>
    </linearGradient>
  </defs>
  <rect x="2" y="2" width="60" height="60" rx="13" fill="url(#g)"/>
  <!-- раскрытая книга -->
  <path d="M32 18c-4.2-2.4-9.4-3-14-1.7-1 .3-1.7 1.2-1.7 2.3v22.6c0 1.5 1.5 2.6 3 2.2 3.9-1 8.2-.5 11.7 1.4.6.3 1.4.3 2 0 3.5-1.9 7.8-2.4 11.7-1.4 1.5.4 3-.7 3-2.2V18.6c0-1.1-.7-2-1.7-2.3-4.6-1.3-9.8-.7-14 1.7z" fill="#fff"/>
  <path d="M32 18v27" stroke="#e2511f" stroke-width="1.6" opacity=".5"/>
</svg>
